# 3ds Max Wavefront OBJ Exporter v0.99 - (c)2007 guruware
# File Created: 02.09.2023 23:59:16

#
# object d6n_round_inv
#

v  -0.4741 -0.4741 0.4741
v  -0.4774 -0.4774 0.4597
v  -0.4774 -0.4597 0.4774
v  -0.4597 -0.4774 0.4774
v  -0.4741 -0.4741 -0.4741
v  -0.4774 -0.4774 -0.4597
v  -0.4597 -0.4774 -0.4774
v  -0.4774 -0.4597 -0.4774
v  0.4741 -0.4741 -0.4741
v  0.4597 -0.4774 -0.4774
v  0.4774 -0.4774 -0.4597
v  0.4774 -0.4597 -0.4774
v  0.4741 -0.4741 0.4741
v  0.4774 -0.4774 0.4597
v  0.4597 -0.4774 0.4774
v  0.4774 -0.4597 0.4774
v  -0.4741 0.4741 0.4741
v  -0.4597 0.4774 0.4774
v  -0.4774 0.4597 0.4774
v  -0.4774 0.4774 0.4597
v  0.4741 0.4741 0.4741
v  0.4597 0.4774 0.4774
v  0.4774 0.4774 0.4597
v  0.4774 0.4597 0.4774
v  0.4741 0.4741 -0.4741
v  0.4774 0.4774 -0.4597
v  0.4597 0.4774 -0.4774
v  0.4774 0.4597 -0.4774
v  -0.4741 0.4741 -0.4741
v  -0.4597 0.4774 -0.4774
v  -0.4774 0.4774 -0.4597
v  -0.4774 0.4597 -0.4774
v  -0.4597 -0.4847 0.4597
v  -0.4597 -0.4847 -0.4597
v  0.4597 -0.4847 -0.4597
v  0.4597 -0.4847 0.4597
v  -0.4597 0.4847 0.4597
v  0.4597 0.4847 0.4597
v  0.4597 0.4847 -0.4597
v  -0.4597 0.4847 -0.4597
v  -0.4597 -0.4597 0.4847
v  0.4597 -0.4597 0.4847
v  0.4597 0.4597 0.4847
v  -0.4597 0.4597 0.4847
v  0.4847 -0.4597 0.4597
v  0.4847 -0.4597 -0.4597
v  0.4847 0.4597 -0.4597
v  0.4847 0.4597 0.4597
v  0.4597 -0.4597 -0.4847
v  -0.4597 -0.4597 -0.4847
v  -0.4597 0.4597 -0.4847
v  0.4597 0.4597 -0.4847
v  -0.4847 -0.4597 -0.4597
v  -0.4847 -0.4597 0.4597
v  -0.4847 0.4597 0.4597
v  -0.4847 0.4597 -0.4597
# 56 vertices

vn 0.1877 0.9641 -0.1877
vn -0.1877 0.9641 -0.1877
vn -0.1877 0.9641 0.1877
vn 0.1877 0.9641 0.1877
vn 0.1877 -0.9641 -0.1877
vn 0.1877 -0.9641 0.1877
vn -0.1877 -0.9641 0.1877
vn -0.1877 -0.9641 -0.1877
vn 0.1877 0.1877 -0.9641
vn 0.1877 -0.1877 -0.9641
vn -0.1877 -0.1877 -0.9641
vn -0.1877 0.1877 -0.9641
vn -0.9641 0.1877 -0.1877
vn -0.9641 -0.1877 -0.1877
vn -0.9641 -0.1877 0.1877
vn -0.9641 0.1877 0.1877
vn -0.1877 0.1877 0.9641
vn -0.1877 -0.1877 0.9641
vn 0.1877 -0.1877 0.9641
vn 0.1877 0.1877 0.9641
vn 0.9641 0.1877 0.1877
vn 0.9641 -0.1877 0.1877
vn 0.9641 -0.1877 -0.1877
vn 0.9641 0.1877 -0.1877
vn 0.1877 0.9641 -0.1877
vn 0.6993 0.6993 -0.1479
vn 0.5774 0.5773 -0.5774
vn 0.1479 0.6993 -0.6993
vn 0.1877 0.9641 0.1877
vn 0.1479 0.6993 0.6993
vn 0.5774 0.5774 0.5774
vn 0.6993 0.6993 0.1479
vn -0.1877 0.9641 0.1877
vn -0.6993 0.6993 0.1479
vn -0.5774 0.5774 0.5774
vn -0.1479 0.6993 0.6993
vn -0.1877 0.9641 -0.1877
vn -0.1479 0.6993 -0.6993
vn -0.5774 0.5774 -0.5774
vn -0.6993 0.6993 -0.1479
vn 0.1877 -0.9641 -0.1877
vn 0.1479 -0.6993 -0.6993
vn 0.5773 -0.5774 -0.5773
vn 0.6993 -0.6993 -0.1479
vn -0.1877 -0.9641 -0.1877
vn -0.6993 -0.6993 -0.1479
vn -0.5773 -0.5774 -0.5773
vn -0.1479 -0.6993 -0.6993
vn -0.1877 -0.9641 0.1877
vn -0.1479 -0.6993 0.6993
vn -0.5773 -0.5774 0.5773
vn -0.6993 -0.6993 0.1479
vn 0.1877 -0.9641 0.1877
vn 0.6993 -0.6993 0.1479
vn 0.5773 -0.5774 0.5773
vn 0.1479 -0.6993 0.6993
vn 0.1877 0.1877 -0.9641
vn 0.1479 0.6993 -0.6993
vn 0.5774 0.5773 -0.5774
vn 0.6993 0.1479 -0.6993
vn -0.1877 0.1877 -0.9641
vn -0.6993 0.1479 -0.6993
vn -0.5774 0.5774 -0.5774
vn -0.1479 0.6993 -0.6993
vn -0.1877 -0.1877 -0.9641
vn -0.1479 -0.6993 -0.6993
vn -0.5773 -0.5774 -0.5773
vn -0.6993 -0.1479 -0.6993
vn 0.1877 -0.1877 -0.9641
vn 0.6993 -0.1479 -0.6993
vn 0.5773 -0.5774 -0.5773
vn 0.1479 -0.6993 -0.6993
vn -0.9641 0.1877 -0.1877
vn -0.6993 0.6993 -0.1479
vn -0.5774 0.5774 -0.5774
vn -0.6993 0.1479 -0.6993
vn -0.9641 0.1877 0.1877
vn -0.6993 0.1479 0.6993
vn -0.5774 0.5774 0.5774
vn -0.6993 0.6993 0.1479
vn -0.9641 -0.1877 0.1877
vn -0.6993 -0.6993 0.1479
vn -0.5773 -0.5774 0.5773
vn -0.6993 -0.1479 0.6993
vn -0.9641 -0.1877 -0.1877
vn -0.6993 -0.1479 -0.6993
vn -0.5773 -0.5774 -0.5773
vn -0.6993 -0.6993 -0.1479
vn -0.1877 0.1877 0.9641
vn -0.1479 0.6993 0.6993
vn -0.5774 0.5774 0.5774
vn -0.6993 0.1479 0.6993
vn 0.1877 0.1877 0.9641
vn 0.6993 0.1479 0.6993
vn 0.5774 0.5774 0.5774
vn 0.1479 0.6993 0.6993
vn 0.1877 -0.1877 0.9641
vn 0.1479 -0.6993 0.6993
vn 0.5773 -0.5774 0.5773
vn 0.6993 -0.1479 0.6993
vn -0.1877 -0.1877 0.9641
vn -0.6993 -0.1479 0.6993
vn -0.5773 -0.5774 0.5773
vn -0.1479 -0.6993 0.6993
vn 0.9641 0.1877 0.1877
vn 0.6993 0.6993 0.1479
vn 0.5774 0.5774 0.5774
vn 0.6993 0.1479 0.6993
vn 0.9641 0.1877 -0.1877
vn 0.6993 0.1479 -0.6993
vn 0.5774 0.5773 -0.5774
vn 0.6993 0.6993 -0.1479
vn 0.9641 -0.1877 -0.1877
vn 0.6993 -0.6993 -0.1479
vn 0.5773 -0.5774 -0.5773
vn 0.6993 -0.1479 -0.6993
vn 0.9641 -0.1877 0.1877
vn 0.6993 -0.1479 0.6993
vn 0.5773 -0.5774 0.5773
vn 0.6993 -0.6993 0.1479
vn 0.1877 0.9641 0.1877
vn 0.6993 0.6993 0.1479
vn 0.6993 0.6993 -0.1479
vn 0.1877 0.9641 -0.1877
vn -0.1877 0.9641 0.1877
vn -0.1479 0.6993 0.6993
vn 0.1479 0.6993 0.6993
vn 0.1877 0.9641 0.1877
vn -0.1877 0.9641 -0.1877
vn -0.6993 0.6993 -0.1479
vn -0.6993 0.6993 0.1479
vn -0.1877 0.9641 0.1877
vn 0.1877 0.9641 -0.1877
vn 0.1479 0.6993 -0.6993
vn -0.1479 0.6993 -0.6993
vn -0.1877 0.9641 -0.1877
vn -0.1877 -0.9641 -0.1877
vn -0.1479 -0.6993 -0.6993
vn 0.1479 -0.6993 -0.6993
vn 0.1877 -0.9641 -0.1877
vn -0.1877 -0.9641 0.1877
vn -0.6993 -0.6993 0.1479
vn -0.6993 -0.6993 -0.1479
vn -0.1877 -0.9641 -0.1877
vn 0.1877 -0.9641 0.1877
vn 0.1479 -0.6993 0.6993
vn -0.1479 -0.6993 0.6993
vn -0.1877 -0.9641 0.1877
vn 0.1877 -0.9641 -0.1877
vn 0.6993 -0.6993 -0.1479
vn 0.6993 -0.6993 0.1479
vn 0.1877 -0.9641 0.1877
vn -0.1877 0.1877 -0.9641
vn -0.1479 0.6993 -0.6993
vn 0.1479 0.6993 -0.6993
vn 0.1877 0.1877 -0.9641
vn -0.1877 -0.1877 -0.9641
vn -0.6993 -0.1479 -0.6993
vn -0.6993 0.1479 -0.6993
vn -0.1877 0.1877 -0.9641
vn 0.1877 -0.1877 -0.9641
vn 0.1479 -0.6993 -0.6993
vn -0.1479 -0.6993 -0.6993
vn -0.1877 -0.1877 -0.9641
vn 0.1877 0.1877 -0.9641
vn 0.6993 0.1479 -0.6993
vn 0.6993 -0.1479 -0.6993
vn 0.1877 -0.1877 -0.9641
vn -0.9641 0.1877 0.1877
vn -0.6993 0.6993 0.1479
vn -0.6993 0.6993 -0.1479
vn -0.9641 0.1877 -0.1877
vn -0.9641 -0.1877 0.1877
vn -0.6993 -0.1479 0.6993
vn -0.6993 0.1479 0.6993
vn -0.9641 0.1877 0.1877
vn -0.9641 -0.1877 -0.1877
vn -0.6993 -0.6993 -0.1479
vn -0.6993 -0.6993 0.1479
vn -0.9641 -0.1877 0.1877
vn -0.9641 0.1877 -0.1877
vn -0.6993 0.1479 -0.6993
vn -0.6993 -0.1479 -0.6993
vn -0.9641 -0.1877 -0.1877
vn 0.1877 0.1877 0.9641
vn 0.1479 0.6993 0.6993
vn -0.1479 0.6993 0.6993
vn -0.1877 0.1877 0.9641
vn 0.1877 -0.1877 0.9641
vn 0.6993 -0.1479 0.6993
vn 0.6993 0.1479 0.6993
vn 0.1877 0.1877 0.9641
vn -0.1877 -0.1877 0.9641
vn -0.1479 -0.6993 0.6993
vn 0.1479 -0.6993 0.6993
vn 0.1877 -0.1877 0.9641
vn -0.1877 0.1877 0.9641
vn -0.6993 0.1479 0.6993
vn -0.6993 -0.1479 0.6993
vn -0.1877 -0.1877 0.9641
vn 0.9641 0.1877 -0.1877
vn 0.6993 0.6993 -0.1479
vn 0.6993 0.6993 0.1479
vn 0.9641 0.1877 0.1877
vn 0.9641 -0.1877 -0.1877
vn 0.6993 -0.1479 -0.6993
vn 0.6993 0.1479 -0.6993
vn 0.9641 0.1877 -0.1877
vn 0.9641 -0.1877 0.1877
vn 0.6993 -0.6993 0.1479
vn 0.6993 -0.6993 -0.1479
vn 0.9641 -0.1877 -0.1877
vn 0.9641 0.1877 0.1877
vn 0.6993 0.1479 0.6993
vn 0.6993 -0.1479 0.6993
vn 0.9641 -0.1877 0.1877
# 216 vertex normals

vt 0.6288 0.4923 0.0000
vt 0.6288 0.0077 0.0000
vt 0.8712 0.0077 0.0000
vt 0.8712 0.4923 0.0000
vt 0.1288 0.5077 0.0000
vt 0.3712 0.5077 0.0000
vt 0.3712 0.9923 0.0000
vt 0.1288 0.9923 0.0000
vt 0.3788 0.5077 0.0000
vt 0.6212 0.5077 0.0000
vt 0.6212 0.9923 0.0000
vt 0.3788 0.9923 0.0000
vt 0.1288 0.0077 0.0000
vt 0.3712 0.0077 0.0000
vt 0.3712 0.4923 0.0000
vt 0.1288 0.4923 0.0000
vt 0.6212 0.4923 0.0000
vt 0.3788 0.4923 0.0000
vt 0.3788 0.0077 0.0000
vt 0.6212 0.0077 0.0000
vt 0.6288 0.5077 0.0000
vt 0.8712 0.5077 0.0000
vt 0.8712 0.9923 0.0000
vt 0.6288 0.9923 0.0000
vt 0.8649 0.5077 0.0000
vt 0.6288 0.4798 0.0000
vt 0.3788 0.5202 0.0000
vt 0.8712 0.5202 0.0000
vt 0.6351 0.4923 0.0000
vt 0.3851 0.5077 0.0000
vt 0.6288 0.0202 0.0000
vt 0.6351 0.5077 0.0000
vt 0.3851 0.4923 0.0000
vt 0.6351 0.0077 0.0000
vt 0.6288 0.5202 0.0000
vt 0.3788 0.4798 0.0000
vt 0.8649 0.0077 0.0000
vt 0.6149 0.4923 0.0000
vt 0.3649 0.0077 0.0000
vt 0.8712 0.0202 0.0000
vt 0.6212 0.4798 0.0000
vt 0.3712 0.0202 0.0000
vt 0.8712 0.4798 0.0000
vt 0.1351 0.0077 0.0000
vt 0.6149 0.5077 0.0000
vt 0.8649 0.4923 0.0000
vt 0.1288 0.0202 0.0000
vt 0.6212 0.5202 0.0000
vt 0.3851 0.9923 0.0000
vt 0.1351 0.5077 0.0000
vt 0.8712 0.9798 0.0000
vt 0.3788 0.9798 0.0000
vt 0.1288 0.5202 0.0000
vt 0.8649 0.9923 0.0000
vt 0.3649 0.5077 0.0000
vt 0.6149 0.9923 0.0000
vt 0.1351 0.4923 0.0000
vt 0.3712 0.5202 0.0000
vt 0.6212 0.9798 0.0000
vt 0.1288 0.4798 0.0000
vt 0.3712 0.9798 0.0000
vt 0.3649 0.4923 0.0000
vt 0.6149 0.0077 0.0000
vt 0.3649 0.9923 0.0000
vt 0.3712 0.4798 0.0000
vt 0.6212 0.0202 0.0000
vt 0.1351 0.9923 0.0000
vt 0.3851 0.0077 0.0000
vt 0.6351 0.9923 0.0000
vt 0.1288 0.9798 0.0000
vt 0.3788 0.0202 0.0000
vt 0.6288 0.9798 0.0000
vt 0.6351 0.4798 0.0000
vt 0.6351 0.0202 0.0000
vt 0.8649 0.0202 0.0000
vt 0.8649 0.4798 0.0000
vt 0.1351 0.5202 0.0000
vt 0.3649 0.5202 0.0000
vt 0.3649 0.9798 0.0000
vt 0.1351 0.9798 0.0000
vt 0.3851 0.5202 0.0000
vt 0.6149 0.5202 0.0000
vt 0.6149 0.9798 0.0000
vt 0.3851 0.9798 0.0000
vt 0.1351 0.0202 0.0000
vt 0.3649 0.0202 0.0000
vt 0.3649 0.4798 0.0000
vt 0.1351 0.4798 0.0000
vt 0.6149 0.4798 0.0000
vt 0.3851 0.4798 0.0000
vt 0.3851 0.0202 0.0000
vt 0.6149 0.0202 0.0000
vt 0.6351 0.5202 0.0000
vt 0.8649 0.5202 0.0000
vt 0.8649 0.9798 0.0000
vt 0.6351 0.9798 0.0000
# 96 texture coords

o d6n_round_inv
g d6n_round_inv
f 33/73/1 36/76/2 35/75/3 34/74/4 
f 37/77/5 40/80/6 39/79/7 38/78/8 
f 41/81/9 44/84/10 43/83/11 42/82/12 
f 45/85/13 48/88/14 47/87/15 46/86/16 
f 49/89/17 52/92/18 51/91/19 50/90/20 
f 53/93/21 56/96/22 55/95/23 54/94/24 
f 33/73/25 2/26/26 1/1/27 4/29/28 
f 34/74/29 7/34/30 5/2/31 6/31/32 
f 35/75/33 11/40/34 9/3/35 10/37/36 
f 36/76/37 15/46/38 13/4/39 14/43/40 
f 37/77/41 18/50/42 17/5/43 20/53/44 
f 38/78/45 23/58/46 21/6/47 22/55/48 
f 39/79/49 27/64/50 25/7/51 26/61/52 
f 40/80/53 31/70/54 29/8/55 30/67/56 
f 41/81/57 4/30/58 1/9/59 3/27/60 
f 42/82/61 16/48/62 13/10/63 15/45/64 
f 43/83/65 22/56/66 21/11/67 24/59/68 
f 44/84/69 19/52/70 17/12/71 18/49/72 
f 45/85/73 14/44/74 13/13/75 16/47/76 
f 46/86/77 12/42/78 9/14/79 11/39/80 
f 47/87/81 26/62/82 25/15/83 28/65/84 
f 48/88/85 24/60/86 21/16/87 23/57/88 
f 49/89/89 10/38/90 9/17/91 12/41/92 
f 50/90/93 8/36/94 5/18/95 7/33/96 
f 51/91/97 30/68/98 29/19/99 32/71/100 
f 52/92/101 28/66/102 25/20/103 27/63/104 
f 53/93/105 6/32/106 5/21/107 8/35/108 
f 54/94/109 3/28/110 1/22/111 2/25/112 
f 55/95/113 20/54/114 17/23/115 19/51/116 
f 56/96/117 32/72/118 29/24/119 31/69/120 
f 34/74/121 6/31/122 2/26/123 33/73/124 
f 35/75/125 10/37/126 7/34/127 34/74/128 
f 36/76/129 14/43/130 11/40/131 35/75/132 
f 33/73/133 4/29/134 15/46/135 36/76/136 
f 38/78/137 22/55/138 18/50/139 37/77/140 
f 39/79/141 26/61/142 23/58/143 38/78/144 
f 40/80/145 30/67/146 27/64/147 39/79/148 
f 37/77/149 20/53/150 31/70/151 40/80/152 
f 42/82/153 15/45/154 4/30/155 41/81/156 
f 43/83/157 24/59/158 16/48/159 42/82/160 
f 44/84/161 18/49/162 22/56/163 43/83/164 
f 41/81/165 3/27/166 19/52/167 44/84/168 
f 46/86/169 11/39/170 14/44/171 45/85/172 
f 47/87/173 28/65/174 12/42/175 46/86/176 
f 48/88/177 23/57/178 26/62/179 47/87/180 
f 45/85/181 16/47/182 24/60/183 48/88/184 
f 50/90/185 7/33/186 10/38/187 49/89/188 
f 51/91/189 32/71/190 8/36/191 50/90/192 
f 52/92/193 27/63/194 30/68/195 51/91/196 
f 49/89/197 12/41/198 28/66/199 52/92/200 
f 54/94/201 2/25/202 6/32/203 53/93/204 
f 55/95/205 19/51/206 3/28/207 54/94/208 
f 56/96/209 31/69/210 20/54/211 55/95/212 
f 53/93/213 8/35/214 32/72/215 56/96/216 
# 54 polygons

